<svg xmlns="http://www.w3.org/2000/svg" height="344" width="540.001">
  <path
    d="M300.812 166.283l-67.697-.001-3.081.001.001-.001-47.708-.001h-2.769l1.206-2.492 28.21-58.284 1.482-3.062 1.608 3 8.332 15.555 41.984-73.33 1.4-2.44 1.554 2.345 19.228 29.007h47.124v.03h.001v44.629l-4.552-7.132V80.746h-39.811l26.212 39.542 7.31-11.46 1.458-2.288 1.46 2.287 36.678 57.456h-4.108l-24.647-38.607v47.136l-3.887-4.38-53.015-53.902-36.608 46.275h59.43l3.205 3.478zM153.596 276.595l-6.842 21.934h-2.663l-5.556-16.73a9.27 9.27 0 01-.143-.52c-.046-.185-.097-.378-.148-.582-.052.204-.102.397-.153.582-.051.183-.102.357-.153.52l-5.587 16.73h-2.663l-6.843-21.934h2.466c.265 0 .489.066.667.199.18.132.292.3.342.504l4.531 15.246a19.884 19.884 0 01.398 1.898c.071-.358.148-.7.224-1.021.076-.322.158-.612.25-.877l5.159-15.246c.06-.173.183-.335.362-.483a.973.973 0 01.648-.22h.856c.266 0 .481.066.643.199.164.132.287.3.368.504l5.143 15.246c.092.265.179.55.255.857.076.306.148.627.219.964a21.7 21.7 0 01.169-.964c.06-.307.127-.592.2-.857l4.544-15.246a.974.974 0 01.347-.49c.18-.142.393-.213.648-.213zm49.91 11.388v8.417a12.275 12.275 0 01-3.526 1.782c-1.25.393-2.623.591-4.113.591-1.764 0-3.356-.275-4.775-.822-1.418-.545-2.628-1.31-3.633-2.295a10.007 10.007 0 01-2.321-3.54c-.54-1.378-.81-2.894-.81-4.547 0-1.673.264-3.199.79-4.576.524-1.378 1.27-2.561 2.24-3.546.968-.985 2.147-1.745 3.536-2.286 1.387-.541 2.938-.811 4.652-.811.867 0 1.673.062 2.418.189.745.127 1.434.311 2.066.55.633.24 1.22.531 1.76.873.542.342 1.046.73 1.517 1.158l-.843 1.348a.866.866 0 01-.51.387c-.209.056-.443.01-.7-.143a22.688 22.688 0 01-.84-.52 7.294 7.294 0 00-1.154-.592 9.314 9.314 0 00-1.607-.48c-.617-.132-1.352-.198-2.2-.198-1.233 0-2.351.198-3.35.6-1 .405-1.853.98-2.556 1.73-.705.751-1.245 1.66-1.623 2.725-.378 1.067-.567 2.266-.567 3.592 0 1.378.199 2.607.592 3.694.393 1.087.954 2.01 1.683 2.771a7.19 7.19 0 002.654 1.74c1.04.398 2.208.596 3.505.596 1.02 0 1.928-.118 2.72-.347.79-.23 1.56-.545 2.315-.954v-4.82h-3.413a.64.64 0 01-.464-.17.551.551 0 01-.178-.412v-1.684zm41.19-.414c0 1.643-.262 3.148-.781 4.52-.52 1.373-1.255 2.557-2.205 3.547-.949.99-2.086 1.755-3.418 2.3-1.332.546-2.806.822-4.418.822-1.613 0-3.082-.276-4.408-.822-1.327-.545-2.464-1.31-3.414-2.3-.949-.99-1.684-2.174-2.204-3.547-.52-1.372-.78-2.877-.78-4.52 0-1.643.26-3.153.78-4.526.52-1.372 1.255-2.556 2.204-3.55a9.91 9.91 0 013.414-2.316c1.326-.552 2.795-.827 4.408-.827 1.612 0 3.086.275 4.418.827a9.878 9.878 0 013.418 2.316c.95.994 1.684 2.178 2.205 3.55.52 1.373.78 2.883.78 4.526zm-3.047 0c0-1.346-.183-2.556-.55-3.628-.369-1.07-.889-1.98-1.562-2.719a6.767 6.767 0 00-2.45-1.704c-.959-.398-2.03-.596-3.213-.596-1.173 0-2.24.198-3.199.596a6.83 6.83 0 00-2.454 1.704c-.679.74-1.204 1.649-1.571 2.72-.368 1.07-.552 2.28-.552 3.627 0 1.348.184 2.551.552 3.618.367 1.066.892 1.969 1.571 2.709a6.767 6.767 0 002.454 1.699c.96.392 2.026.592 3.199.592 1.183 0 2.254-.2 3.214-.592a6.705 6.705 0 002.449-1.699c.673-.74 1.193-1.643 1.561-2.71.368-1.066.551-2.27.551-3.617zm-1.943-17.388l-4.99 4.379c-.154.142-.301.23-.444.26-.143.03-.316.045-.52.045h-1.96l3.536-4.194c.173-.225.352-.362.53-.413.179-.05.434-.077.77-.077zm31.684 17.037c.857 0 1.617-.108 2.276-.317.657-.21 1.209-.505 1.653-.889a3.65 3.65 0 001-1.366c.224-.531.337-1.117.337-1.76 0-1.306-.429-2.292-1.286-2.954-.857-.663-2.143-.995-3.858-.995h-3.244v8.28zm10.133 11.31h-2.633c-.54 0-.939-.209-1.194-.628l-5.693-7.836c-.174-.245-.358-.424-.557-.53-.199-.108-.51-.159-.928-.159h-2.25v9.154h-2.954v-21.934h6.198c1.389 0 2.587.137 3.597.418 1.01.28 1.848.69 2.506 1.22a4.85 4.85 0 011.459 1.918c.316.75.475 1.592.475 2.52 0 .776-.123 1.5-.368 2.174a5.72 5.72 0 01-1.062 1.811 6.372 6.372 0 01-1.698 1.372 8.448 8.448 0 01-2.275.858c.376.214.703.525.979.933zm30.996-8.142l-3.444-8.924c-.101-.265-.21-.576-.322-.929a21.148 21.148 0 01-.321-1.122 16.542 16.542 0 01-.658 2.066l-3.444 8.909zm6.183 8.143h-2.295c-.266 0-.48-.067-.643-.2a1.225 1.225 0 01-.367-.505l-2.052-5.295h-9.841l-2.05 5.295a1.082 1.082 0 01-.353.49.979.979 0 01-.643.215h-2.296l8.77-21.934h3zm34.104-4.531a.57.57 0 01.428.198l1.18 1.27a9.36 9.36 0 01-3.267 2.434c-1.28.582-2.831.873-4.648.873-1.571 0-3-.275-4.285-.822a9.424 9.424 0 01-3.29-2.295c-.91-.985-1.613-2.163-2.113-3.54-.5-1.378-.75-2.894-.75-4.547 0-1.653.26-3.168.78-4.546.521-1.376 1.255-2.56 2.2-3.55a9.82 9.82 0 013.386-2.307c1.318-.546 2.772-.816 4.364-.816 1.56 0 2.939.25 4.132.75 1.194.5 2.246 1.178 3.154 2.035l-.98 1.363a.774.774 0 01-.235.25.683.683 0 01-.393.102c-.183 0-.408-.103-.673-.301a10.277 10.277 0 00-1.042-.663c-.428-.246-.963-.47-1.606-.669-.644-.198-1.434-.295-2.372-.295-1.133 0-2.169.193-3.109.587a6.759 6.759 0 00-2.423 1.709c-.678.743-1.208 1.653-1.586 2.723-.377 1.072-.566 2.282-.566 3.628 0 1.367.198 2.588.591 3.658.393 1.071.93 1.975 1.608 2.715a6.794 6.794 0 002.402 1.694c.924.387 1.918.581 2.99.581.654 0 1.245-.04 1.771-.118a7.24 7.24 0 001.454-.356 6.15 6.15 0 001.24-.623c.382-.249.76-.546 1.138-.893.173-.153.347-.23.52-.23zm39.2-17.403v21.934h-2.97v-9.98h-11.83v9.98h-2.97v-21.934h2.97v9.78h11.83v-9.78zM45.01 251.335c0-.248-.083-.497-.747-.497h-3.818c-.747 0-.83-.83-.83-3.486v-49.629c0-2.655.083-3.486.83-3.486h3.818c.664 0 .747-.248.747-.497 0-.25-.083-.498-.747-.498H25.009c-.664 0-.747.249-.747.498 0 .25.083.497.747.497h3.735c.83 0 .912.83.912 3.486v49.63c0 2.656-.082 3.485-.912 3.485h-3.735c-.664 0-.747.25-.747.498 0 .249.083.498.747.498h19.254c.664 0 .747-.25.747-.498zm56.185-57.595c0-.25-.082-.498-.747-.498h-16.1c-.664 0-.83.249-.83.498 0 .25.083.497.83.497h.912c6.557 0 8.798 5.478 8.798 19.254v27.139h-.166l-27.719-46.89c-.167-.25-.415-.498-.83-.498H51.069c-.665 0-.748.249-.748.498 0 .25.083.497.748.497h3.983c.747 0 .83.83.83 3.486v34.442c0 15.52-1.162 18.673-5.145 18.673h-.166c-.665 0-.747.25-.747.498 0 .249.082.498.747.498h16.266c.664 0 .747-.25.747-.498 0-.249-.083-.498-.747-.498h-1.079c-6.64 0-8.798-5.477-8.798-19.254v-33.777h.084l32.283 54.358c.084.25.249.499.83.499h4.15c.664 0 .83-.249.83-.499v-39.337c0-15.437 1.162-18.59 5.146-18.59h.165c.665 0 .747-.249.747-.498zm89.632 0c0-.25-.083-.498-.747-.498h-15.77c-.663 0-.83.249-.83.498 0 .25.084.497.83.497h1.827c6.64 0 5.062 9.213 3.154 15.52l-9.793 32.699h-.166l-13.86-44.068c-1.079-3.487-.664-4.15.83-4.15h3.403c.664 0 .747-.249.747-.498 0-.25-.083-.498-.747-.498h-20.998c-.663 0-.83.249-.83.498 0 .25.083.497.83.497h1.826c6.64 0 5.063 9.213 3.154 15.52l-9.544 32.699h-.249l-14.026-44.068c-1.078-3.487-.663-4.15.83-4.15h3.403c.664 0 .747-.249.747-.498 0-.25-.083-.498-.747-.498H104.35c-.664 0-.747.249-.747.498 0 .25.083.497.747.497h1.576c1.328 0 1.91.581 3.072 4.15l18.175 53.778c.082.332.332.499.746.499h3.652c.415 0 .664-.167.747-.499l14.275-47.387h.166l15.851 47.387c.083.332.249.499.747.499h3.569c.498 0 .663-.167.83-.499l12.863-42.159c4.067-13.445 6.64-15.769 9.295-15.769h.167c.664 0 .747-.248.747-.497zm44.317 57.513V232.83c0-.582-.25-.747-.58-.747-.25 0-.582.083-.582.747v.747c0 5.975-3.651 17.262-16.433 17.262h-7.8c-.582 0-.747-.25-.747-.498v-28.217c0-.25.248-.498.83-.498h4.896c4.564 0 8.465 3.568 8.465 8.465v.581c0 .664.25.747.499.747.248 0 .497-.166.497-.747V211.75c0-.581-.25-.747-.497-.747-.25 0-.5.083-.5.747v.664c0 4.813-3.9 8.3-8.464 8.3h-4.98c-.58 0-.746-.167-.746-.416v-25.561c0-.25.248-.499.83-.499h8.298c8.632 0 13.113 7.802 13.113 16.599v.913c0 .664.332.664.664.664.25 0 .498-.083.498-.664v-17.844c0-.332-.166-.663-.746-.663h-37.264c-.664 0-.747.249-.747.498 0 .25.083.497.747.497h3.735c.83 0 .913.83.913 3.486v49.63c0 2.656-.083 3.485-.913 3.485h-3.735c-.664 0-.747.25-.747.498 0 .249.083.498.747.498h40.002c.581 0 .747-.25.747-.58zm45.148-15.602c0-19.586-29.629-16.35-29.629-33.28 0-5.893 3.569-9.213 8.964-9.213 8.548 0 14.191 7.055 14.191 18.176v.747c0 .664.332.747.581.747.249 0 .582-.166.582-.747v-18.258c0-.665-.333-.83-.582-.83-.249 0-.58.083-.58.83v.581c0 1.66-1.993.664-3.652 0-3.07-1.162-6.225-2.241-9.877-2.241-10.87 0-16.847 8.382-16.847 16.681 0 19.172 29.047 16.35 29.047 32.865 0 6.058-3.983 10.208-11.702 10.208-12.116 0-16.515-12.616-16.515-20.914v-.83c0-.747-.332-.747-.58-.747-.25 0-.582.083-.582.747v20.997c0 .664.332.83.582.83.248 0 .58-.083.58-.83v-.498c0-1.66 1.826-1.079 4.316-.166 3.154 1.079 7.054 2.324 12.117 2.324 11.867 0 19.586-7.967 19.586-17.18zm51.123-22.823v-18.923c0-.332-.166-.663-.747-.663h-47.804c-.664 0-.747.331-.747.663v18.923c0 .58.332.663.581.663.25 0 .498 0 .498-.663v-1.66c0-9.295 4.482-16.93 12.781-16.93h5.063c.664 0 .747.249.747.498v52.616c0 2.657-.083 3.486-.914 3.486h-3.9c-.748 0-.83.25-.83.498 0 .249.166.498.83.498h19.587c.663 0 .746-.25.746-.498 0-.249-.083-.498-.746-.498h-3.984c-.748 0-.83-.83-.83-3.486v-52.616c0-.25.082-.499.663-.499h5.063c8.382 0 12.78 7.636 12.78 16.93v1.66c0 .664.25.664.581.664.249 0 .582-.082.582-.663zm56.35-19.088c0-.25-.082-.498-.746-.498h-15.685c-.664 0-.747.249-.747.498 0 .25.083.497.747.497h1.493c4.15 0 5.312 2.74 3.32 6.557-2.324 4.565-8.216 14.607-11.702 20.25l-12.947-21.743c-2.49-4.15-2.24-5.064-.747-5.064h3.901c.665 0 .747-.248.747-.497 0-.25-.082-.498-.747-.498h-20.665c-.663 0-.746.249-.746.498 0 .25.083.497.746.497h1.08c1.41 0 2.157.499 4.812 4.898l14.275 23.817c.332.582.498.997.498 1.495v22.905c0 2.657-.166 3.486-.913 3.486h-3.734c-.747 0-.83.25-.83.498 0 .249.166.498.83.498h19.254c.664 0 .747-.25.747-.498 0-.249-.083-.498-.747-.498h-3.818c-.746 0-.83-.83-.83-3.486v-23.57c0-.83-.082-.912.333-1.576 2.738-4.564 8.63-14.026 12.033-19.337 2.988-4.648 5.062-8.632 9.793-8.632h.25c.663 0 .745-.248.745-.497zm41.994 57.513v-21.245c0-.582-.332-.748-.58-.748-.249 0-.499.083-.499.748v1.41c0 12.615-6.97 20.499-17.179 20.499-10.622 0-11.867-8.05-12.531-17.014a169.744 169.744 0 010-24.316c.414-5.81-.083-17.511 12.033-17.511 7.801 0 14.856 6.722 14.856 19.834v.913c0 .665.249.747.498.747.25 0 .581-.165.581-.747v-20c0-.665-.415-.83-.664-.83-.25 0-.415.083-.415.83v.581c0 1.66-2.075.664-3.818 0-2.157-.83-6.804-2.158-11.12-2.158-16.682 0-24.4 13.693-24.4 30.624 0 14.44 7.387 29.96 24.732 29.96 3.734 0 9.211-.665 13.444-2.241 1.91-.664 3.983-1.577 3.983.083v.581c0 .747.167.83.415.83.25 0 .664-.166.664-.83zm40.169-57.513c0-.25-.083-.498-.747-.498h-19.836c-.663 0-.746.249-.746.498 0 .25.083.497.746.497h4.399c.748 0 .83.83.83 3.486v48.135c0 2.656-.747 6.142-5.56 6.142-2.573 0-4.897-.913-4.897-2.822 0-2.241 3.071-2.821 3.071-6.64 0-3.484-2.739-5.726-5.892-5.726-3.403 0-5.893 2.573-5.893 6.059 0 6.556 7.303 9.959 13.694 9.959 10.457 0 15.436-8.133 15.436-16.93v-38.177c0-2.655.084-3.486.913-3.486h3.735c.664 0 .747-.248.747-.497zm45.81 57.513V232.83c0-.582-.248-.747-.58-.747-.249 0-.58.083-.58.747v.747c0 5.975-3.652 17.262-16.433 17.262h-7.802c-.58 0-.746-.25-.746-.498v-28.217c0-.25.249-.498.83-.498h4.896c4.565 0 8.465 3.568 8.465 8.465v.581c0 .664.25.747.498.747.25 0 .499-.166.499-.747V211.75c0-.581-.25-.747-.499-.747s-.498.083-.498.747v.664c0 4.813-3.9 8.3-8.465 8.3h-4.98c-.58 0-.746-.167-.746-.416v-25.561c0-.25.249-.499.83-.499h8.299c8.63 0 13.113 7.802 13.113 16.599v.913c0 .664.332.664.664.664.248 0 .497-.083.497-.664v-17.844c0-.332-.165-.663-.746-.663H474.99c-.664 0-.747.249-.747.498 0 .25.083.497.747.497h3.735c.83 0 .913.83.913 3.486v49.63c0 2.656-.083 3.485-.913 3.485h-3.735c-.664 0-.747.25-.747.498 0 .249.083.498.747.498h40.002c.582 0 .747-.25.747-.58zm-188.603-130.71l-4.83-7.565-7.284 11.42-1.434 2.247-1.473-2.22-48.116-72.59-42.143 73.603-1.556 2.717-1.48-2.763-8.204-15.317-25.52 52.729h47.657l16.285-20.845V118.49H261.012v8.154l12.164-15.555 1.61-1.813 1.609 1.813 50.74 51.338zm-75.465 18.05l6.71-8.58v-8.89h-6.71z"
    fill="#ffffff" fill-rule="evenodd" /></svg>