<?xml version="1.0" encoding="UTF-8" standalone="no"?>
<svg xmlns:dc="http://purl.org/dc/elements/1.1/" xmlns:cc="http://creativecommons.org/ns#"
  xmlns:rdf="http://www.w3.org/1999/02/22-rdf-syntax-ns#" xmlns:svg="http://www.w3.org/2000/svg"
  xmlns="http://www.w3.org/2000/svg" xmlns:sodipodi="http://sodipodi.sourceforge.net/DTD/sodipodi-0.dtd"
  xmlns:inkscape="http://www.inkscape.org/namespaces/inkscape" inkscape:version="1.0 (4035a4fb49, 2020-05-01)"
  sodipodi:docname="inwestycje w górach divided.svg" id="svg8" version="1.1" fill-rule="nonzero"
  image-rendering="optimizeQuality" shape-rendering="geometricPrecision" viewBox="0 0 29551 4734" height="181.637"
  width="1133.858">
  <metadata id="metadata14">
    <rdf:RDF>
      <cc:Work rdf:about="">
        <dc:format>image/svg+xml</dc:format>
        <dc:type rdf:resource="http://purl.org/dc/dcmitype/StillImage" />
        <dc:title></dc:title>
      </cc:Work>
    </rdf:RDF>
  </metadata>
  <defs id="defs12" />
  <sodipodi:namedview inkscape:current-layer="svg8" inkscape:window-maximized="1" inkscape:window-y="-8"
    inkscape:window-x="-8" inkscape:cy="90.818497" inkscape:cx="346.76908" inkscape:zoom="0.98865044" showgrid="false"
    id="namedview10" inkscape:window-height="706" inkscape:window-width="1366" inkscape:pageshadow="2"
    inkscape:pageopacity="0" guidetolerance="10" gridtolerance="10" objecttolerance="10" borderopacity="1"
    bordercolor="#666666" pagecolor="#ffffff" />
  <path inkscape:label="#hill" id="path2" fill="#d7b56d"
    d="M4381 4426H0l44-90 1072-2217 59 108 301 562L3043 52l56 84 1742 2628 317-497 1378 2159h-149L5158 2500l-263 412-52 82-53-81L3051 290 1472 3048l-53-100-297-553-922 1905h4065z" />
  <path inkscape:label="#main_signature" transform="matrix(26.062973,0,0,26.062973,-0.35546821,0)"
    d="M 698.62891 0 C 680.09687 0 669.92969 14.273624 669.92969 28.431641 C 669.92969 61.083327 719.42578 56.285966 719.42578 84.410156 C 719.42578 94.731312 712.63309 101.79102 699.47266 101.79102 C 678.83034 101.79102 671.34961 80.305195 671.34961 66.185547 L 671.34961 64.765625 C 671.34961 63.499461 670.77362 63.5 670.35156 63.5 C 669.92951 63.5 669.35352 63.614567 669.35352 64.765625 L 669.35352 100.52539 C 669.35352 101.67645 669.92951 101.94531 670.35156 101.94531 C 670.77362 101.94531 671.34961 101.79155 671.34961 100.52539 L 671.34961 99.681641 C 671.34961 96.842364 674.45788 97.838996 678.7168 99.412109 C 684.0884 101.2538 690.72448 103.36523 699.35742 103.36523 C 719.57768 103.36523 732.70117 89.782605 732.70117 74.089844 C 732.70117 40.709154 682.24609 46.234053 682.24609 17.380859 C 682.24609 7.3666525 688.30716 1.6875 697.51562 1.6875 C 712.05733 1.6875 721.68945 13.698251 721.68945 32.652344 L 721.68945 33.917969 C 721.68945 35.069027 722.26349 35.222656 722.68555 35.222656 C 723.1076 35.222656 723.68359 34.915553 723.68359 33.917969 L 723.68359 2.8398438 C 723.68359 1.6887855 723.1076 1.4199219 722.68555 1.4199219 C 722.26349 1.4199219 721.68945 1.5736797 721.68945 2.8398438 L 721.68945 3.8359375 C 721.68945 6.6368459 718.27356 4.9486272 715.47266 3.8359375 C 710.21616 1.8407698 704.84462 -5.9211895e-16 698.62891 0 z M 955.27734 0.15429688 C 926.8462 0.15429688 913.68555 23.480791 913.68555 52.333984 C 913.68555 76.928263 926.26937 103.36523 955.85156 103.36523 C 962.18238 103.36523 971.54451 102.21315 978.75781 99.527344 C 981.98078 98.414654 985.51172 96.842364 985.51172 99.681641 L 985.51172 100.67969 C 985.51172 101.94585 985.81818 102.09961 986.24023 102.09961 C 986.66229 102.09961 987.35352 101.79238 987.35352 100.67969 L 987.35352 64.458984 C 987.35352 63.499769 986.81659 63.193359 986.39453 63.193359 C 985.97248 63.193359 985.51172 63.346295 985.51172 64.458984 L 985.51172 66.876953 C 985.51172 88.363374 973.65637 101.79102 956.27539 101.79102 C 938.16541 101.79102 936.0534 88.094925 934.90234 72.824219 C 933.90476 59.088257 933.90476 45.120728 934.90234 31.384766 C 935.63135 21.485665 934.74901 1.5722656 955.42969 1.5722656 C 968.70523 1.5722656 980.71484 13.00736 980.71484 35.337891 L 980.71484 36.910156 C 980.71484 38.022846 981.13654 38.177734 981.55859 38.177734 C 981.98065 38.177734 982.55664 37.90774 982.55664 36.910156 L 982.55664 2.8398438 C 982.55664 1.6887855 981.86541 1.4199219 981.44336 1.4199219 C 981.0213 1.4199219 980.71484 1.5736797 980.71484 2.8398438 L 980.71484 3.8359375 C 980.71484 6.6368459 977.18485 4.9486272 974.23047 3.8359375 C 970.54708 2.416299 962.60575 0.15429688 955.27734 0.15429688 z M 297.79297 1.8417969 C 296.64191 1.8417969 296.52539 2.2634922 296.52539 2.6855469 C 296.52539 3.1076016 296.64191 3.5292969 297.79297 3.5292969 L 304.16211 3.5292969 C 305.54338 3.5292969 305.69727 4.9490667 305.69727 9.4765625 L 305.69727 94.041016 C 305.69727 98.568511 305.54338 99.951172 304.16211 99.951172 L 297.79297 99.951172 C 296.64191 99.951172 296.52539 100.37161 296.52539 100.83203 C 296.52539 101.25409 296.64191 101.67773 297.79297 101.67773 L 330.59766 101.67773 C 331.71035 101.67773 331.86328 101.25409 331.86328 100.83203 C 331.86328 100.37161 331.71035 99.951172 330.59766 99.951172 L 324.07422 99.951172 C 322.80805 99.951172 322.6543 98.568511 322.6543 94.041016 L 322.6543 9.4765625 C 322.6543 4.9490667 322.80805 3.5292969 324.07422 3.5292969 L 330.59766 3.5292969 C 331.71035 3.5292969 331.86328 3.1076016 331.86328 2.6855469 C 331.86328 2.2634922 331.71035 1.8417969 330.59766 1.8417969 L 297.79297 1.8417969 z M 342.18555 1.8417969 C 341.03449 1.8417969 340.91797 2.2634922 340.91797 2.6855469 C 340.91797 3.1076016 341.03449 3.5292969 342.18555 3.5292969 L 348.97656 3.5292969 C 350.24273 3.5292969 350.39648 4.9490667 350.39648 9.4765625 L 350.39648 68.142578 C 350.39648 94.578549 348.40062 99.951172 341.60938 99.951172 L 341.33984 99.951172 C 340.18879 99.951172 340.07422 100.37161 340.07422 100.83203 C 340.07422 101.25409 340.18879 101.67773 341.33984 101.67773 L 369.04297 101.67773 C 370.19403 101.67773 370.30859 101.25409 370.30859 100.83203 C 370.30859 100.37161 370.19403 99.951172 369.04297 99.951172 L 367.20117 99.951172 C 355.88243 99.951172 352.23828 90.62612 352.23828 67.144531 L 352.23828 9.6308594 L 352.35352 9.6308594 L 407.37305 102.21484 C 407.48815 102.6369 407.79538 103.0957 408.79297 103.0957 L 415.85352 103.0957 C 416.96621 103.0957 417.27148 102.6369 417.27148 102.21484 L 417.27148 35.222656 C 417.27148 8.9017907 419.22829 3.5292969 426.01953 3.5292969 L 426.32812 3.5292969 C 427.44081 3.5292969 427.59375 3.1076016 427.59375 2.6855469 C 427.59375 2.2634922 427.44081 1.8417969 426.32812 1.8417969 L 398.89453 1.8417969 C 397.74347 1.8417969 397.47461 2.2634922 397.47461 2.6855469 C 397.47461 3.1076016 397.59 3.5292969 398.89453 3.5292969 L 400.42773 3.5292969 C 411.593 3.5292969 415.42969 12.854349 415.42969 36.335938 L 415.42969 82.568359 L 415.12305 82.568359 L 367.92969 2.6855469 C 367.62274 2.2634922 367.2004 1.8417969 366.50977 1.8417969 L 342.18555 1.8417969 z M 432.96484 1.8417969 C 431.81379 1.8417969 431.69922 2.2634922 431.69922 2.6855469 C 431.69922 3.1076016 431.81379 3.5292969 432.96484 3.5292969 L 435.65039 3.5292969 C 437.91414 3.5292969 438.91234 4.5276036 440.86914 10.589844 L 471.83203 102.21484 C 471.98551 102.79037 472.40702 103.0957 473.09766 103.0957 L 479.35352 103.0957 C 480.04415 103.0957 480.46567 102.79037 480.61914 102.21484 L 504.94531 21.486328 L 505.21289 21.486328 L 532.22461 102.21484 C 532.33972 102.79037 532.64612 103.0957 533.49023 103.0957 L 539.55273 103.0957 C 540.43521 103.0957 540.70408 102.79037 540.97266 102.21484 L 562.88086 30.388672 C 569.82558 7.4826125 574.19907 3.5292969 578.72656 3.5292969 L 579.03516 3.5292969 C 580.14785 3.5292969 580.30078 3.1076016 580.30078 2.6855469 C 580.30078 2.2634922 580.14785 1.8417969 579.03516 1.8417969 L 552.13867 1.8417969 C 551.02598 1.8417969 550.75586 2.2634922 550.75586 2.6855469 C 550.75586 3.1076016 550.87251 3.5292969 552.13867 3.5292969 L 555.24609 3.5292969 C 566.56483 3.5292969 563.87921 19.223586 560.65625 29.966797 L 543.96484 85.677734 L 543.6582 85.677734 L 520.0625 10.589844 C 518.22081 4.681078 518.90977 3.5292969 521.48047 3.5292969 L 527.27539 3.5292969 C 528.38808 3.5292969 528.54102 3.1076016 528.54102 2.6855469 C 528.54102 2.2634922 528.38808 1.8417969 527.27539 1.8417969 L 491.47656 1.8417969 C 490.36387 1.8417969 490.0957 2.2634922 490.0957 2.6855469 C 490.0957 3.1076016 490.2104 3.5292969 491.47656 3.5292969 L 494.62305 3.5292969 C 505.90342 3.5292969 503.2171 19.223586 499.99414 29.966797 L 483.72656 85.677734 L 483.30469 85.677734 L 459.40039 10.589844 C 457.5587 4.681078 458.24962 3.5292969 460.82031 3.5292969 L 466.61523 3.5292969 C 467.72792 3.5292969 467.88086 3.1076016 467.88086 2.6855469 C 467.88086 2.2634922 467.72792 1.8417969 466.61523 1.8417969 L 432.96484 1.8417969 z M 586.36328 1.8417969 C 585.25059 1.8417969 585.0957 2.2634922 585.0957 2.6855469 C 585.0957 3.1076016 585.25059 3.5292969 586.36328 3.5292969 L 592.73242 3.5292969 C 594.15206 3.5292969 594.30469 4.9490667 594.30469 9.4765625 L 594.30469 94.041016 C 594.30469 98.568511 594.15206 99.951172 592.73242 99.951172 L 586.36328 99.951172 C 585.25059 99.951172 585.0957 100.37161 585.0957 100.83203 C 585.0957 101.25409 585.25059 101.67773 586.36328 101.67773 L 654.50586 101.67773 C 655.50344 101.67773 655.81055 101.25522 655.81055 100.67969 L 655.81055 69.292969 C 655.81055 68.295385 655.38803 68.027344 654.8125 68.027344 C 654.39045 68.027344 653.81445 68.14191 653.81445 69.292969 L 653.81445 70.560547 C 653.81445 80.728228 647.59806 99.951172 625.80469 99.951172 L 612.5293 99.951172 C 611.53171 99.951172 611.26367 99.527523 611.26367 99.105469 L 611.26367 51.029297 C 611.26367 50.607242 611.68601 50.185547 612.68359 50.185547 L 621.00977 50.185547 C 628.79859 50.185547 635.43555 56.287293 635.43555 64.613281 L 635.43555 65.609375 C 635.43555 66.722065 635.8592 66.876953 636.28125 66.876953 C 636.7033 66.876953 637.125 66.606959 637.125 65.609375 L 637.125 33.380859 C 637.125 32.383276 636.7033 32.115234 636.28125 32.115234 C 635.8592 32.115234 635.43555 32.229801 635.43555 33.380859 L 635.43555 34.494141 C 635.43555 42.705023 628.79859 48.652344 621.00977 48.652344 L 612.5293 48.652344 C 611.53171 48.652344 611.26367 48.34393 611.26367 47.921875 L 611.26367 4.3730469 C 611.26367 3.9509922 611.68601 3.5292969 612.68359 3.5292969 L 626.80273 3.5292969 C 641.49791 3.5292969 649.13281 16.842883 649.13281 31.806641 L 649.13281 33.380859 C 649.13281 34.493549 649.70963 34.494141 650.28516 34.494141 C 650.70721 34.494141 651.12891 34.378443 651.12891 33.380859 L 651.12891 2.9550781 C 651.12891 2.4179176 650.86087 1.8417969 649.86328 1.8417969 L 586.36328 1.8417969 z M 737.11328 1.8417969 C 735.96222 1.8417969 735.80859 2.4179176 735.80859 2.9550781 L 735.80859 35.222656 C 735.80859 36.181871 736.38459 36.335938 736.80664 36.335938 C 737.2287 36.335938 737.65039 36.335346 737.65039 35.222656 L 737.65039 32.382812 C 737.65039 16.536577 745.28534 3.5292969 759.44336 3.5292969 L 768.07617 3.5292969 C 769.18886 3.5292969 769.3418 3.9509922 769.3418 4.3730469 L 769.3418 94.041016 C 769.3418 98.568511 769.18917 99.951172 767.76953 99.951172 L 761.13086 99.951172 C 759.8647 99.951172 759.71289 100.37161 759.71289 100.83203 C 759.71289 101.25409 760.01817 101.67773 761.13086 101.67773 L 794.51172 101.67773 C 795.62441 101.67773 795.7793 101.25409 795.7793 100.83203 C 795.7793 100.37161 795.62441 99.951172 794.51172 99.951172 L 787.7207 99.951172 C 786.45454 99.951172 786.30078 98.568511 786.30078 94.041016 L 786.30078 4.3730469 C 786.30078 3.9509922 786.45554 3.5292969 787.45312 3.5292969 L 796.04688 3.5292969 C 810.35837 3.5292969 817.83984 16.536577 817.83984 32.382812 L 817.83984 35.222656 C 817.83984 36.335346 818.26236 36.335938 818.83789 36.335938 C 819.25995 36.335938 819.79687 36.181871 819.79688 35.222656 L 819.79688 2.9550781 C 819.79688 2.4179176 819.52883 1.8417969 818.53125 1.8417969 L 737.11328 1.8417969 z M 824.20898 1.8417969 C 823.05793 1.8417969 822.94336 2.2634922 822.94336 2.6855469 C 822.94336 3.1076016 823.05793 3.5292969 824.20898 3.5292969 L 826.05078 3.5292969 C 828.42963 3.5292969 829.69711 4.374284 834.22461 11.894531 L 858.54883 52.449219 C 859.12436 53.446803 859.39453 54.139006 859.39453 55.021484 L 859.39453 94.041016 C 859.39453 98.568511 859.12554 99.951172 857.85938 99.951172 L 851.49023 99.951172 C 850.22407 99.951172 850.07031 100.37161 850.07031 100.83203 C 850.07031 101.25409 850.33918 101.67773 851.49023 101.67773 L 884.29492 101.67773 C 885.40761 101.67773 885.56055 101.25409 885.56055 100.83203 C 885.56055 100.37161 885.40761 99.951172 884.29492 99.951172 L 877.77148 99.951172 C 876.50532 99.951172 876.39062 98.568511 876.39062 94.041016 L 876.39062 53.869141 C 876.39062 52.449502 876.2371 52.334652 876.92773 51.183594 C 881.6087 43.394766 891.66142 27.279601 897.45508 18.224609 C 902.51973 10.320676 906.05001 3.5292969 914.10742 3.5292969 L 914.56836 3.5292969 C 915.68105 3.5292969 915.83398 3.1076016 915.83398 2.6855469 C 915.83398 2.2634922 915.68105 1.8417969 914.56836 1.8417969 L 887.82422 1.8417969 C 886.71153 1.8417969 886.55859 2.2634922 886.55859 2.6855469 C 886.55859 3.1076016 886.71153 3.5292969 887.82422 3.5292969 L 890.35742 3.5292969 C 897.45561 3.5292969 899.41159 8.2110176 896.03516 14.695312 C 892.08319 22.48414 882.03112 39.597301 876.08398 49.189453 L 854.02148 12.162109 C 849.80094 5.1022854 850.22353 3.5292969 852.75586 3.5292969 L 859.39453 3.5292969 C 860.54559 3.5292969 860.66016 3.1076016 860.66016 2.6855469 C 860.66016 2.2634922 860.54559 1.8417969 859.39453 1.8417969 L 824.20898 1.8417969 z M 1020.7344 1.8417969 C 1019.6217 1.8417969 1019.4668 2.2634922 1019.4668 2.6855469 C 1019.4668 3.1076016 1019.6217 3.5292969 1020.7344 3.5292969 L 1028.2148 3.5292969 C 1029.5194 3.5292969 1029.6348 4.9490667 1029.6348 9.4765625 L 1029.6348 91.470703 C 1029.6348 95.998199 1028.3691 101.94531 1020.1582 101.94531 C 1015.7842 101.94531 1011.832 100.3714 1011.832 97.148438 C 1011.832 93.311577 1017.0508 92.314373 1017.0508 85.830078 C 1017.0508 79.882944 1012.4087 76.083984 1007.0371 76.083984 C 1001.2434 76.083984 996.98437 80.459116 996.98438 86.40625 C 996.98438 97.571515 1009.4158 103.36523 1020.3125 103.36523 C 1038.1155 103.36523 1046.5938 89.513845 1046.5938 74.511719 L 1046.5938 9.4765625 C 1046.5938 4.9490667 1046.7483 3.5292969 1048.168 3.5292969 L 1054.5371 3.5292969 C 1055.6498 3.5292969 1055.8027 3.1076016 1055.8027 2.6855469 C 1055.8027 2.2634922 1055.6498 1.8417969 1054.5371 1.8417969 L 1020.7344 1.8417969 z M 1064.4355 1.8417969 C 1063.2845 1.8417969 1063.1699 2.2634922 1063.1699 2.6855469 C 1063.1699 3.1076016 1063.2845 3.5292969 1064.4355 3.5292969 L 1070.8047 3.5292969 C 1072.186 3.5292969 1072.3398 4.9490667 1072.3398 9.4765625 L 1072.3398 94.041016 C 1072.3398 98.568511 1072.186 99.951172 1070.8047 99.951172 L 1064.4355 99.951172 C 1063.2845 99.951172 1063.1699 100.37161 1063.1699 100.83203 C 1063.1699 101.25409 1063.2845 101.67773 1064.4355 101.67773 L 1132.5781 101.67773 C 1133.5757 101.67773 1133.8438 101.25522 1133.8438 100.67969 L 1133.8438 69.292969 C 1133.8438 68.295385 1133.4232 68.027344 1132.8477 68.027344 C 1132.4256 68.027344 1131.8867 68.14191 1131.8867 69.292969 L 1131.8867 70.560547 C 1131.8867 80.728228 1125.6339 99.951172 1103.8789 99.951172 L 1090.6035 99.951172 C 1089.6059 99.951172 1089.2988 99.527523 1089.2988 99.105469 L 1089.2988 51.029297 C 1089.2988 50.607242 1089.7212 50.185547 1090.7188 50.185547 L 1099.082 50.185547 C 1106.8325 50.185547 1113.5098 56.287293 1113.5098 64.613281 L 1113.5098 65.609375 C 1113.5098 66.722065 1113.9315 66.876953 1114.3535 66.876953 C 1114.7756 66.876953 1115.1973 66.606959 1115.1973 65.609375 L 1115.1973 33.380859 C 1115.1973 32.383276 1114.7756 32.115234 1114.3535 32.115234 C 1113.9315 32.115234 1113.5098 32.229801 1113.5098 33.380859 L 1113.5098 34.494141 C 1113.5098 42.705023 1106.8325 48.652344 1099.082 48.652344 L 1090.6035 48.652344 C 1089.6059 48.652344 1089.2988 48.34393 1089.2988 47.921875 L 1089.2988 4.3730469 C 1089.2988 3.9509922 1089.7212 3.5292969 1090.7188 3.5292969 L 1104.877 3.5292969 C 1119.5721 3.5292969 1127.207 16.842883 1127.207 31.806641 L 1127.207 33.380859 C 1127.207 34.493549 1127.7812 34.494141 1128.3184 34.494141 C 1128.7788 34.494141 1129.2012 34.378443 1129.2012 33.380859 L 1129.2012 2.9550781 C 1129.2012 2.4179176 1128.8941 1.8417969 1127.8965 1.8417969 L 1064.4355 1.8417969 z "
    style="stroke-width:0.0383686;image-rendering:auto" id="path40" fill="#ffffff" />
  <path id="path20" d="m 2606,3425 242,-310 v -321 h -242 z" style="image-rendering:auto" />
  <path inkscape:label="#home" transform="matrix(26.062973,0,0,26.062973,-0.35546821,0)"
    d="M 145.58398 45.466797 L 148.19336 49.380859 L 204.5957 49.380859 L 204.5957 97.457031 L 210.92578 107.35547 L 210.92578 45.505859 L 210.92578 45.466797 L 145.58398 45.466797 z M 132.03906 90.779297 L 129.81445 93.273438 L 112.93164 114.875 L 112.93164 103.55664 L 96.318359 103.55664 L 96.318359 136.09375 L 69.998047 169.82031 L 77.480469 169.82031 L 132.03906 100.83203 L 205.51562 175.57422 L 210.92578 181.63672 L 210.92578 116.29492 L 204.5957 106.39648 L 204.5957 164.44727 L 134.26562 93.273438 L 132.03906 90.779297 z "
    style="stroke-width:0.0383686;image-rendering:auto" id="path18" fill="#d7b56d" />
  <path inkscape:label="#add_signature" id="path6" fill="#ffffff"
    d="M13471 3749l-304 974h-119l-246-743c-2-7-5-15-7-23s-4-17-6-26c-2 9-5 18-7 26s-4 16-7 23l-248 743h-118l-304-974h110c11 0 21 3 29 9s13 13 15 22l202 677 9 40c3 14 6 29 8 45 3-16 7-31 10-46 4-14 7-27 11-39l229-677c3-7 9-15 16-21 8-7 18-10 29-10h38c12 0 22 3 29 9s13 13 16 22l229 677c4 12 7 25 11 38 3 14 6 28 10 43 2-15 4-29 7-43l9-38 202-677c2-8 7-15 15-21 8-7 18-10 29-10h103zm2216 506v374c-49 35-101 61-157 79-55 17-116 26-182 26-79 0-149-12-212-37-63-24-117-58-162-101-44-44-79-97-103-158s-36-128-36-202 12-142 35-203c24-61 57-113 100-157s95-78 157-102c61-24 130-36 206-36 39 0 75 3 108 9 33 5 63 13 91 24 29 11 55 24 79 39s46 32 67 51l-37 60c-6 9-14 15-23 17-9 3-20 1-31-6-11-6-23-14-38-23-14-9-31-18-51-26-20-9-44-16-71-22-28-6-60-9-98-9-55 0-104 9-149 27-44 18-82 44-113 77s-55 74-72 121-25 101-25 159c0 62 9 116 26 164 17 49 42 90 75 123 32 34 71 60 118 78 46 17 98 26 155 26 45 0 86-5 121-15s69-24 103-43v-214h-152c-8 0-15-2-20-7-6-5-8-11-8-18v-75h299zm1829-19c0 73-12 140-35 201s-56 114-98 158-92 78-152 102c-59 24-124 36-196 36-71 0-137-12-196-36-58-24-109-58-151-102s-75-97-98-158-35-128-35-201 12-140 35-200c23-61 56-114 98-158s93-79 151-103c59-25 125-37 196-37 72 0 137 12 196 37 60 24 110 59 152 103s75 97 98 158c23 60 35 127 35 200zm-136 0c0-59-8-113-24-161-16-47-39-88-69-120-30-33-66-58-109-76s-90-27-143-27c-52 0-99 9-142 27-42 18-79 43-109 76-30 32-53 73-70 120-16 48-24 102-24 161 0 60 8 114 24 161 17 47 40 88 70 120 30 33 67 58 109 76 43 17 90 26 142 26 53 0 100-9 143-26 43-18 79-43 109-76 30-32 53-73 69-120s24-101 24-161zm-86-772l-221 195c-7 6-14 10-20 11-6 2-14 2-23 2h-87l157-186c7-10 15-16 23-18 8-3 20-4 35-4h136zm1407 757c38 0 72-5 101-14 29-10 54-23 74-40 19-17 34-37 44-60 10-24 15-50 15-79 0-58-19-101-57-131-38-29-95-44-171-44h-145v368h139zm450 502h-117c-24 0-42-9-53-28l-253-348c-7-11-16-19-24-23-9-5-23-7-42-7h-100v406h-131v-974h276c61 0 114 6 159 19 45 12 82 30 112 54 29 23 50 52 64 85s21 71 21 112c0 34-5 67-16 96-11 30-26 57-47 81s-46 44-76 61c-29 17-63 29-101 38 17 9 32 23 44 41l284 387zm1376-361l-153-397c-4-12-9-25-14-41s-10-32-14-50c-10 37-19 67-29 92l-153 396h363zm275 361h-102c-12 0-21-3-29-9-7-6-12-13-16-22l-91-235h-437l-91 235c-3 8-8 15-16 22-7 6-17 9-28 9h-102l389-974h134l389 974zm1514-201c8 0 14 3 19 9l53 56c-40 46-88 82-145 108s-126 39-207 39c-69 0-133-12-190-37-57-24-106-58-146-101-40-44-72-97-94-158s-33-128-33-202c0-73 11-140 34-201 24-62 56-114 98-158s92-78 150-102c59-25 124-37 194-37s131 11 184 34c53 22 99 52 140 90l-44 60c-2 5-6 9-10 12-4 2-10 4-18 4s-18-4-30-13c-11-9-27-19-46-30s-43-21-71-29c-29-9-64-14-105-14-51 0-97 9-138 27-42 17-78 42-108 75s-54 74-71 121c-16 48-25 102-25 161 0 61 9 115 27 163 17 47 41 88 71 120 30 33 66 58 107 76 41 17 85 25 132 25 29 0 56-1 79-5 23-3 45-8 65-16 19-7 38-16 55-27s33-25 50-40c8-7 16-10 23-10zm1741-773v974h-132v-443h-525v443h-132v-974h132v434h525v-434h132z" />
</svg>