<svg xmlns="http://www.w3.org/2000/svg" width="1133.858" height="181.637" viewBox="0 0 29551 4734"  shape-rendering="geometricPrecision" image-rendering="optimizeQuality" fill-rule="nonzero" xmlns:v="https://vecta.io/nano"><path d="M4381 4426H0l44-90 1072-2217 59 108 301 562L3043 52l56 84 1742 2628 317-497 1378 2159h-149L5158 2500l-263 412-52 82-53-81L3051 290 1472 3048l-53-100-297-553-922 1905h4065z" fill="#d7b56d"/><path d="M5497 1186v1612l-165-258V1287H3862l-68-102h1703v1zm0 1845v1703l-141-158-1915-1948-1422 1798h-195l686-879v-848h433v295l440-563 58-65 58 65 1833 1855V2773l165 258zm-2891 394l242-310v-321h-242v631zm6043-797c0-12-4-23-33-23h-170c-33 0-37-36-37-154V247c0-118 4-155 37-155h170c29 0 33-11 33-22s-4-22-33-22h-855c-30 0-33 11-33 22s3 22 33 22h166c36 0 40 37 40 155v2204c0 118-4 154-40 154h-166c-30 0-33 11-33 23 0 11 3 22 33 22h855c29 0 33-11 33-22zM11144 70c0-11-4-22-33-22h-715c-30 0-37 11-37 22s3 22 37 22h40c291 0 391 243 391 855v1205h-8L9589 70c-8-11-19-22-37-22h-634c-30 0-33 11-33 22s3 22 33 22h177c33 0 37 37 37 155v1529c0 689-52 829-229 829h-7c-30 0-33 11-33 23 0 11 3 22 33 22h722c30 0 33-11 33-22 0-12-3-23-33-23h-48c-295 0-390-243-390-855V251h3l1434 2413c3 11 11 23 37 23h184c29 0 37-12 37-23V918c0-686 51-826 228-826h8c29 0 33-11 33-22zm3980 0c0-11-4-22-33-22h-701c-29 0-36 11-36 22s3 22 36 22h81c295 0 225 409 141 689l-435 1452h-8l-615-1957c-48-154-30-184 37-184h151c29 0 33-11 33-22s-4-22-33-22h-933c-29 0-36 11-36 22s3 22 36 22h82c294 0 224 409 140 689l-424 1452h-11l-623-1957c-48-154-30-184 37-184h151c29 0 33-11 33-22s-4-22-33-22h-877c-30 0-33 11-33 22s3 22 33 22h70c59 0 85 26 136 184l807 2388c4 15 15 23 33 23h163c18 0 29-8 33-23l634-2104h7l704 2104c3 15 11 23 33 23h158c23 0 30-8 37-23l571-1872c181-597 295-700 413-700h8c29 0 33-11 33-22zm1968 2554v-818c0-26-11-33-26-33-11 0-26 3-26 33v33c0 265-162 766-730 766h-346c-26 0-33-11-33-22V1330c0-11 11-22 37-22h217c203 0 376 159 376 376v26c0 29 11 33 22 33s22-7 22-33V870c0-26-11-33-22-33s-22 3-22 33v29c0 214-173 369-376 369h-221c-26 0-33-8-33-19V114c0-11 11-22 37-22h368c383 0 582 347 582 737v41c0 29 15 29 30 29 11 0 22-3 22-29V77c0-14-7-29-33-29h-1655c-29 0-33 11-33 22s4 22 33 22h166c37 0 41 37 41 155v2204c0 118-4 154-41 154h-166c-29 0-33 11-33 23 0 11 4 22 33 22h1776c26 0 34-11 34-26zm2004-693c0-870-1315-726-1315-1478 0-261 158-409 398-409 379 0 630 313 630 807v33c0 30 15 34 26 34s26-8 26-34V74c0-30-15-37-26-37s-26 4-26 37v26c0 73-89 29-162 0-137-52-277-100-439-100-483 0-748 372-748 741 0 851 1290 726 1290 1459 0 269-177 453-520 453-538 0-733-560-733-928v-37c0-33-15-33-26-33s-26 3-26 33v932c0 30 15 37 26 37s26-4 26-37v-22c0-74 81-48 192-7 140 48 313 103 538 103 527 0 869-354 869-763zm2270-1013V77c0-14-7-29-33-29h-2122c-30 0-34 15-34 29v841c0 25 15 29 26 29s22 0 22-29v-74c0-413 199-752 568-752h225c29 0 33 11 33 22v2337c0 118-4 154-41 154h-173c-33 0-37 11-37 23 0 11 8 22 37 22h870c29 0 33-11 33-22 0-12-4-23-33-23h-177c-33 0-37-36-37-154V114c0-11 4-22 30-22h224c373 0 568 339 568 752v74c0 29 11 29 26 29 11 0 25-4 25-29zm2503-848c0-11-4-22-33-22h-697c-29 0-33 11-33 22s4 22 33 22h66c185 0 236 122 148 291-103 203-365 649-520 899l-575-965c-110-184-99-225-33-225h173c30 0 33-11 33-22s-3-22-33-22h-917c-30 0-33 11-33 22s3 22 33 22h48c62 0 95 22 213 218l634 1057c15 26 22 44 22 67v1017c0 118-7 154-40 154h-166c-33 0-37 11-37 23 0 11 7 22 37 22h855c29 0 33-11 33-22 0-12-4-23-33-23h-170c-33 0-36-36-36-154V1404c0-37-4-40 14-70 122-203 384-623 535-859 132-206 224-383 434-383h12c29 0 33-11 33-22zm1864 2554v-944c0-25-14-33-25-33s-23 4-23 33v63c0 560-309 910-762 910-472 0-527-357-557-755-26-358-26-722 0-1080 19-258-4-777 535-777 346 0 659 298 659 880v41c0 29 11 33 22 33s26-7 26-33V74c0-30-18-37-29-37s-19 4-19 37v26c0 73-92 29-169 0-96-37-303-96-494-96-741 0-1084 608-1084 1360 0 641 328 1330 1099 1330 165 0 409-30 597-100 84-29 176-70 176 4v26c0 33 8 37 19 37s29-8 29-37zM27517 70c0-11-4-22-33-22h-881c-29 0-33 11-33 22s4 22 33 22h195c34 0 37 37 37 155v2137c0 118-33 273-247 273-114 0-217-41-217-125 0-100 136-126 136-295 0-155-121-254-261-254-151 0-262 114-262 269 0 291 324 442 608 442 464 0 685-361 685-752V247c0-118 4-155 41-155h166c29 0 33-11 33-22zm2034 2554v-818c0-26-11-33-26-33-11 0-25 3-25 33v33c0 265-163 766-730 766h-346c-26 0-34-11-34-22V1330c0-11 11-22 37-22h218c202 0 376 159 376 376v26c0 29 11 33 22 33s22-7 22-33V870c0-26-11-33-22-33s-22 3-22 33v29c0 214-174 369-376 369h-221c-26 0-34-8-34-19V114c0-11 11-22 37-22h369c383 0 582 347 582 737v41c0 29 15 29 29 29 12 0 23-3 23-29V77c0-14-8-29-34-29h-1654c-30 0-33 11-33 22s3 22 33 22h166c36 0 40 37 40 155v2204c0 118-4 154-40 154h-166c-30 0-33 11-33 23 0 11 3 22 33 22h1776c26 0 33-11 33-26z" fill="#5b5b5b"/><path d="M13471 3749l-304 974h-119l-246-743c-2-7-5-15-7-23s-4-17-6-26c-2 9-5 18-7 26s-4 16-7 23l-248 743h-118l-304-974h110c11 0 21 3 29 9s13 13 15 22l202 677 9 40c3 14 6 29 8 45 3-16 7-31 10-46 4-14 7-27 11-39l229-677c3-7 9-15 16-21 8-7 18-10 29-10h38c12 0 22 3 29 9s13 13 16 22l229 677c4 12 7 25 11 38 3 14 6 28 10 43 2-15 4-29 7-43l9-38 202-677c2-8 7-15 15-21 8-7 18-10 29-10h103zm2216 506v374c-49 35-101 61-157 79-55 17-116 26-182 26-79 0-149-12-212-37-63-24-117-58-162-101-44-44-79-97-103-158s-36-128-36-202 12-142 35-203c24-61 57-113 100-157s95-78 157-102c61-24 130-36 206-36 39 0 75 3 108 9 33 5 63 13 91 24 29 11 55 24 79 39s46 32 67 51l-37 60c-6 9-14 15-23 17-9 3-20 1-31-6-11-6-23-14-38-23-14-9-31-18-51-26-20-9-44-16-71-22-28-6-60-9-98-9-55 0-104 9-149 27-44 18-82 44-113 77s-55 74-72 121-25 101-25 159c0 62 9 116 26 164 17 49 42 90 75 123 32 34 71 60 118 78 46 17 98 26 155 26 45 0 86-5 121-15s69-24 103-43v-214h-152c-8 0-15-2-20-7-6-5-8-11-8-18v-75h299zm1829-19c0 73-12 140-35 201s-56 114-98 158-92 78-152 102c-59 24-124 36-196 36-71 0-137-12-196-36-58-24-109-58-151-102s-75-97-98-158-35-128-35-201 12-140 35-200c23-61 56-114 98-158s93-79 151-103c59-25 125-37 196-37 72 0 137 12 196 37 60 24 110 59 152 103s75 97 98 158c23 60 35 127 35 200zm-136 0c0-59-8-113-24-161-16-47-39-88-69-120-30-33-66-58-109-76s-90-27-143-27c-52 0-99 9-142 27-42 18-79 43-109 76-30 32-53 73-70 120-16 48-24 102-24 161 0 60 8 114 24 161 17 47 40 88 70 120 30 33 67 58 109 76 43 17 90 26 142 26 53 0 100-9 143-26 43-18 79-43 109-76 30-32 53-73 69-120s24-101 24-161zm-86-772l-221 195c-7 6-14 10-20 11-6 2-14 2-23 2h-87l157-186c7-10 15-16 23-18 8-3 20-4 35-4h136zm1407 757c38 0 72-5 101-14 29-10 54-23 74-40 19-17 34-37 44-60 10-24 15-50 15-79 0-58-19-101-57-131-38-29-95-44-171-44h-145v368h139zm450 502h-117c-24 0-42-9-53-28l-253-348c-7-11-16-19-24-23-9-5-23-7-42-7h-100v406h-131v-974h276c61 0 114 6 159 19 45 12 82 30 112 54 29 23 50 52 64 85s21 71 21 112c0 34-5 67-16 96-11 30-26 57-47 81s-46 44-76 61c-29 17-63 29-101 38 17 9 32 23 44 41l284 387zm1376-361l-153-397c-4-12-9-25-14-41s-10-32-14-50c-10 37-19 67-29 92l-153 396h363zm275 361h-102c-12 0-21-3-29-9-7-6-12-13-16-22l-91-235h-437l-91 235c-3 8-8 15-16 22-7 6-17 9-28 9h-102l389-974h134l389 974zm1514-201c8 0 14 3 19 9l53 56c-40 46-88 82-145 108s-126 39-207 39c-69 0-133-12-190-37-57-24-106-58-146-101-40-44-72-97-94-158s-33-128-33-202c0-73 11-140 34-201 24-62 56-114 98-158s92-78 150-102c59-25 124-37 194-37s131 11 184 34c53 22 99 52 140 90l-44 60c-2 5-6 9-10 12-4 2-10 4-18 4s-18-4-30-13c-11-9-27-19-46-30s-43-21-71-29c-29-9-64-14-105-14-51 0-97 9-138 27-42 17-78 42-108 75s-54 74-71 121c-16 48-25 102-25 161 0 61 9 115 27 163 17 47 41 88 71 120 30 33 66 58 107 76 41 17 85 25 132 25 29 0 56-1 79-5 23-3 45-8 65-16 19-7 38-16 55-27s33-25 50-40c8-7 16-10 23-10zm1741-773v974h-132v-443h-525v443h-132v-974h132v434h525v-434h132z" fill="#d7b56d"/></svg>